# xmcd CD database file
#
# Track frame offsets:
#	150
#	1462
#	15520
#	27857
#	31942
#	45637
#	53247
#	75737
#	91772
#	107010
#	109422
#	120087
#	143815
#	157917
#	180675
#	182947
#	204865
#
# Disc length: 2935 seconds
#
# Revision: 3
# Processed by: cddbd v1.5.1PL0 Copyright (c) Steve Scherf et al.
# Submitted via: CDex 1.51
#
DISCID=c90b7511
DTITLE=John Lee Hooker - Live At Newport
DYEAR=2002
DGENRE=Blues
TTITLE0=introduction by George Winston
TTITLE1=Hobo Blues
TTITLE2=Maudie  [from original 1960 vinyl]
TTITLE3=Brownie McGhee and Sonny Terry intro by JLH
TTITLE4=I can't quit You, Baby
TTITLE5=Stop now, Baby
TTITLE6=Tupelo
TTITLE7=Sometimes You make Me feel so bad
TTITLE8=Bus Station Blues
TTITLE9=intro to ''Let's make It''
TTITLE10=Let's make It
TTITLE11=Great Fire of Natchez
TTITLE12=Boom Boom
TTITLE13=You're gonna need another Favor  [prev. unrel.]
TTITLE14=introduction 3 by John Lee Hooker
TTITLE15=Hobo  Blues  [alt. - prev. unrel.]
TTITLE16=Boom Boom  [alt. - prev. unrel.]
EXTD=YEAR: 2002
EXTT0=
EXTT1=
EXTT2=
EXTT3=
EXTT4=
EXTT5=
EXTT6=
EXTT7=
EXTT8=
EXTT9=
EXTT10=
EXTT11=
EXTT12=
EXTT13=
EXTT14=
EXTT15=
EXTT16=
PLAYORDER=
